<?xml version="1.0" standalone="no"?>
<!DOCTYPE svg PUBLIC "-//W3C//DTD SVG 20010904//EN"
 "http://www.w3.org/TR/2001/REC-SVG-20010904/DTD/svg10.dtd">
<svg version="1.0" xmlns="http://www.w3.org/2000/svg"
 width="320.000000pt" height="320.000000pt" viewBox="0 0 320.000000 320.000000"
 preserveAspectRatio="xMidYMid meet">
<metadata>
Created by potrace 1.11, written by Peter Selinger 2001-2013
</metadata>
<g transform="translate(0.000000,320.000000) scale(0.100000,-0.100000)"
fill="#000000" stroke="none">
<path d="M1517 3194 c-1 -1 -33 -4 -72 -7 -281 -25 -579 -142 -818 -324 -96
-73 -255 -239 -329 -343 -133 -187 -242 -451 -273 -660 -17 -113 -19 -149 -19
-285 1 -130 12 -229 39 -357 31 -150 169 -451 261 -568 63 -79 140 -165 193
-215 35 -33 73 -68 83 -77 29 -28 198 -142 258 -175 135 -72 276 -124 435
-158 98 -21 135 -24 330 -24 154 0 242 5 295 15 41 9 85 17 97 20 55 11 237
81 324 124 377 187 669 522 802 921 63 187 72 248 72 494 0 277 -4 311 -61
493 -60 193 -174 406 -290 543 -52 61 -178 185 -241 236 -182 149 -473 283
-692 319 -18 3 -41 7 -50 9 -70 13 -333 28 -344 19z m235 -1030 l3 -233 57 72
c32 40 74 90 93 112 19 22 35 42 35 45 0 3 25 5 54 5 66 0 76 17 -117 -187
-10 -10 -15 -24 -11 -31 10 -17 107 -151 114 -157 11 -9 90 -126 90 -132 0 -6
-100 -3 -104 4 -1 1 -40 57 -86 122 l-84 119 -23 -27 c-20 -24 -23 -37 -23
-120 0 -101 -1 -103 -55 -102 l-30 1 -1 372 -1 372 26 3 c63 8 60 18 63 -238z
m609 99 c1 -10 1 -34 0 -52 -1 -44 7 -48 75 -46 29 2 55 0 55 -4 1 -3 2 -20 3
-36 l2 -30 -65 0 -66 0 -1 -155 c-1 -207 2 -214 91 -222 24 -2 31 -8 33 -31 2
-19 -2 -29 -15 -34 -33 -13 -112 -6 -139 11 -47 31 -56 74 -57 258 0 112 -4
168 -11 169 -6 1 -24 2 -39 2 -26 1 -28 4 -25 37 3 33 5 35 38 35 32 0 35 3
36 30 1 17 2 37 3 46 0 9 16 21 34 27 45 14 47 14 48 -5z m-1341 -108 c17 -9
41 -32 52 -52 l21 -35 13 24 c7 13 30 36 51 51 98 68 223 20 254 -96 12 -46
16 -373 5 -384 -9 -9 -75 -12 -77 -3 -1 3 -2 82 -4 175 -1 99 -7 182 -14 199
-25 62 -92 84 -152 49 -52 -31 -59 -63 -59 -255 l0 -174 -42 1 -43 0 -1 162
c-2 194 -6 223 -41 257 -47 47 -130 28 -169 -38 -15 -26 -18 -56 -20 -201 -1
-93 -2 -172 -3 -175 0 -3 -19 -6 -41 -6 l-40 -1 0 46 c-1 124 -1 447 -1 456 1
6 17 11 36 11 36 0 37 -2 38 -53 0 -29 1 -29 41 9 58 55 130 67 196 33z m756
-657 c13 -13 17 -31 15 -59 -1 -16 -36 -36 -58 -33 -7 1 -17 2 -22 3 -5 0 -14
14 -19 31 -20 56 44 100 84 58z m-742 -198 c19 -11 40 -34 48 -50 l12 -29 29
35 c81 98 218 90 277 -16 24 -44 25 -51 25 -240 l0 -195 -40 0 -40 0 -2 178
c-2 138 -6 185 -18 211 -37 78 -150 74 -192 -7 -12 -24 -16 -68 -17 -206 l-1
-176 -32 -1 c-18 0 -37 2 -42 5 -5 4 -11 91 -13 194 l-3 189 -33 29 c-58 52
-139 31 -172 -44 -15 -35 -18 -68 -17 -198 0 -85 -2 -160 -6 -166 -5 -8 -49
-10 -77 -4 -3 0 -5 114 -5 253 l0 252 33 1 c39 1 42 -3 44 -49 l1 -34 32 34
c60 63 141 77 209 34z m751 -237 c0 -139 -2 -253 -5 -254 -21 -4 -67 -6 -75
-2 -7 2 -10 92 -9 256 1 138 2 252 3 252 0 0 20 0 44 1 l42 1 0 -254z m387
155 l65 -98 51 84 c29 46 58 91 66 99 12 12 45 15 88 8 7 -1 -15 -35 -119
-184 l-41 -59 84 -125 c46 -69 84 -129 84 -132 0 -4 -20 -7 -45 -6 l-46 0 -51
80 c-28 44 -58 91 -66 104 l-15 25 -19 -35 c-10 -19 -38 -65 -62 -104 -44 -69
-45 -70 -90 -70 -25 -1 -46 1 -46 3 0 2 35 56 79 120 43 64 81 122 84 128 4 7
-29 65 -73 129 -44 65 -78 121 -75 124 2 4 21 7 43 7 40 0 41 -1 104 -98z"/>
</g>
</svg>
